<?xml version="1.0" encoding="UTF-8" standalone="no"?>
<svg
   xmlns:dc="http://purl.org/dc/elements/1.1/"
   xmlns:cc="http://creativecommons.org/ns#"
   xmlns:rdf="http://www.w3.org/1999/02/22-rdf-syntax-ns#"
   xmlns:svg="http://www.w3.org/2000/svg"
   xmlns="http://www.w3.org/2000/svg"
   height="100"
   width="98.386589"
   xml:space="preserve"
   viewBox="0 0 98.386584 99.999995"
   y="0px"
   x="0px"
   id="Layer_1"
   version="1.1"><metadata
     id="metadata61"><rdf:RDF><cc:Work
         rdf:about=""><dc:format>image/svg+xml</dc:format><dc:type
           rdf:resource="http://purl.org/dc/dcmitype/StillImage" /><dc:title></dc:title></cc:Work></rdf:RDF></metadata><defs
     id="defs59" /><g
     transform="matrix(0.34408365,0,0,0.34408365,-0.80653208,0)"
     style="fill:#008080;fill-opacity:1"
     id="g24"><g
       style="fill:#008080;fill-opacity:1"
       id="g22"><g
         style="fill:#008080;fill-opacity:1"
         id="g20"><path
           style="fill:#008080;fill-opacity:1"
           id="path2"
           d="M 232.032,257.813 V 206.25 h 4.688 v -4.688 c 0,-12.923 -10.514,-23.438 -23.438,-23.438 h -37.5 V 18.75 C 175.782,8.409 167.373,0 157.032,0 c -10.341,0 -18.75,8.409 -18.75,18.75 v 159.375 h -37.5 c -12.923,0 -23.438,10.514 -23.438,23.438 v 4.688 h 4.688 v 51.563 c 0,18.094 14.719,32.813 32.813,32.813 h 75 v -5.541 c 6.708,3.497 14.77,5.541 23.438,5.541 h 42.188 v -9.375 C 242.545,281.25 232.032,270.736 232.032,257.813 Z M 147.657,18.75 c 0,-5.17 4.205,-9.375 9.375,-9.375 5.17,0 9.375,4.205 9.375,9.375 v 135.938 h -18.75 z m 0,145.313 h 18.75 v 14.063 h -18.75 z M 100.782,187.5 h 112.5 c 6.113,0 11.325,3.919 13.261,9.375 H 87.521 c 1.935,-5.456 7.149,-9.375 13.261,-9.375 z m 14.062,93.751 v 0 C 101.921,281.25 91.406,270.736 91.406,257.812 V 206.25 h 23.438 v 51.563 c 0,9.178 3.797,17.475 9.891,23.438 z m 98.438,0 v 0 c -18.094,-10e-4 -32.813,-10.515 -32.813,-23.439 h -9.375 c 0,9.361 2.02,17.573 5.377,23.438 h -28.814 c -12.923,0 -23.438,-10.514 -23.438,-23.438 V 206.25 h 75 V 225 h 9.375 v -18.75 h 14.063 v 51.563 c 0,9.173 3.783,17.48 9.867,23.438 z" /><path
           id="rect4"
           d="m 199.21899,234.375 h 9.375 v 9.375 h -9.375 z"
           style="fill:#008080;fill-opacity:1" /><path
           style="fill:#008080;fill-opacity:1"
           id="path6"
           d="m 35.157,239.063 h -9.375 c 0,8.405 2.02,16.345 5.602,23.363 C 19.253,250.51 11.72,233.935 11.72,215.626 H 2.344 c 0,41.353 33.647,75 75,75 v -9.375 C 54.084,281.25 35.157,262.322 35.157,239.063 Z" /><path
           id="rect8"
           d="m 264.84399,281.25 h 23.438 v 9.375 h -23.438 z"
           style="fill:#008080;fill-opacity:1" /><path
           style="fill:#008080;fill-opacity:1"
           id="path10"
           d="m 44.532,229.688 c 0,7.753 6.309,14.063 14.063,14.063 7.754,0 14.063,-6.309 14.063,-14.063 0,-7.754 -6.309,-14.063 -14.063,-14.063 -7.754,0 -14.063,6.309 -14.063,14.063 z m 18.75,0 c 0,2.583 -2.105,4.688 -4.688,4.688 -2.583,0 -4.688,-2.105 -4.688,-4.688 0,-2.583 2.105,-4.688 4.688,-4.688 2.583,0 4.688,2.105 4.688,4.688 z" /><path
           style="fill:#008080;fill-opacity:1"
           id="path12"
           d="m 44.532,173.438 c 10.341,0 18.75,-8.409 18.75,-18.75 0,-10.341 -8.409,-18.75 -18.75,-18.75 -10.341,0 -18.75,8.409 -18.75,18.75 0,10.34 8.409,18.75 18.75,18.75 z m 0,-28.125 c 5.17,0 9.375,4.205 9.375,9.375 0,5.17 -4.205,9.375 -9.375,9.375 -5.17,0 -9.375,-4.205 -9.375,-9.375 0,-5.17 4.205,-9.375 9.375,-9.375 z" /><path
           id="rect14"
           d="m 25.782,220.313 h 9.375 v 9.375 h -9.375 z"
           style="fill:#008080;fill-opacity:1" /><path
           id="rect16"
           d="M 2.3440001,196.875 H 11.719 v 9.375 H 2.3440001 Z"
           style="fill:#008080;fill-opacity:1" /><path
           id="rect18"
           d="M 2.3440001,178.125 H 11.719 V 187.5 H 2.3440001 Z"
           style="fill:#008080;fill-opacity:1" /></g></g></g><g
     transform="translate(-96.119701,-95.3135)"
     id="g26" /><g
     transform="translate(-96.119701,-95.3135)"
     id="g28" /><g
     transform="translate(-96.119701,-95.3135)"
     id="g30" /><g
     transform="translate(-96.119701,-95.3135)"
     id="g32" /><g
     transform="translate(-96.119701,-95.3135)"
     id="g34" /><g
     transform="translate(-96.119701,-95.3135)"
     id="g36" /><g
     transform="translate(-96.119701,-95.3135)"
     id="g38" /><g
     transform="translate(-96.119701,-95.3135)"
     id="g40" /><g
     transform="translate(-96.119701,-95.3135)"
     id="g42" /><g
     transform="translate(-96.119701,-95.3135)"
     id="g44" /><g
     transform="translate(-96.119701,-95.3135)"
     id="g46" /><g
     transform="translate(-96.119701,-95.3135)"
     id="g48" /><g
     transform="translate(-96.119701,-95.3135)"
     id="g50" /><g
     transform="translate(-96.119701,-95.3135)"
     id="g52" /><g
     transform="translate(-96.119701,-95.3135)"
     id="g54" /></svg>