<?xml version="1.0" encoding="UTF-8" standalone="no"?>
<svg
   xmlns:dc="http://purl.org/dc/elements/1.1/"
   xmlns:cc="http://creativecommons.org/ns#"
   xmlns:rdf="http://www.w3.org/1999/02/22-rdf-syntax-ns#"
   xmlns:svg="http://www.w3.org/2000/svg"
   xmlns="http://www.w3.org/2000/svg"
   width="173.13374"
   height="26.579744"
   viewBox="0 0 45.808302 7.0325574"
   version="1.1"
   id="svg3705">
  <defs
     id="defs3699" />
  <metadata
     id="metadata3702">
    <rdf:RDF>
      <cc:Work
         rdf:about="">
        <dc:format>image/svg+xml</dc:format>
        <dc:type
           rdf:resource="http://purl.org/dc/dcmitype/StillImage" />
        <dc:title></dc:title>
      </cc:Work>
    </rdf:RDF>
  </metadata>
  <g
     style="fill:#005200;fill-opacity:1"
     id="layer1"
     transform="matrix(0.86566871,0,0,0.95274044,-13.618243,-261.93456)">
    <g
       id="flowRoot3738"
       style="font-style:normal;font-variant:normal;font-weight:normal;font-stretch:normal;font-size:40px;line-height:1.25;font-family:Rockwell;-inkscape-font-specification:Rockwell;letter-spacing:0px;word-spacing:0px;fill:#005200;fill-opacity:1;stroke:none"
       transform="matrix(0.26512767,0,0,0.25418041,-35.973726,131.41811)"
       aria-label="Nature Maid ">
      <path
         id="path3837"
         style="font-style:normal;font-variant:normal;font-weight:200;font-stretch:normal;font-family:'Helvetica Neue';-inkscape-font-specification:'Helvetica Neue Ultra-Light';fill:#005200;fill-opacity:1"
         d="m 195.02,564.59661 h 2.2 l 18.04,26.2 h 0.08 v -26.2 h 1.76 v 28.56 h -2.08 l -18.16,-26.4 h -0.08 v 26.4 h -1.76 z" />
      <path
         id="path3839"
         style="font-style:normal;font-variant:normal;font-weight:200;font-stretch:normal;font-family:'Helvetica Neue';-inkscape-font-specification:'Helvetica Neue Ultra-Light';fill:#005200;fill-opacity:1"
         d="m 235.48937,589.07661 h -0.08 q -0.36,0.92 -1.04,1.76 -0.68,0.8 -1.68,1.44 -0.96,0.64 -2.2,1 -1.24,0.36 -2.72,0.36 -3.28,0 -5.08,-1.4 -1.8,-1.44 -1.8,-4.4 0,-1.8 0.72,-2.92 0.72,-1.16 1.8,-1.8 1.12,-0.68 2.44,-0.96 1.36,-0.28 2.6,-0.4 l 2.36,-0.2 q 1.64,-0.12 2.56,-0.36 0.96,-0.28 1.44,-0.72 0.48,-0.48 0.6,-1.2 0.12001,-0.72 0.12001,-1.8 0,-0.84 -0.32001,-1.56 -0.32,-0.72 -1,-1.28 -0.67999,-0.56 -1.76,-0.88 -1.08,-0.32 -2.64,-0.32 -2.76,0 -4.48,1.36 -1.68,1.36 -1.84,4.12 h -1.51999 q 0.15999,-3.4 2.15999,-5.08 2.04,-1.72 5.76,-1.72 3.72,0 5.4,1.48 1.72,1.44 1.72,3.8 v 11.96 q 0,0.44 0,0.88 0.04,0.44 0.16,0.8 0.12,0.36 0.4,0.6 0.28,0.2 0.8,0.2 0.4,0 1.12,-0.12 v 1.28 q -0.6,0.16 -1.24,0.16 -0.92,0 -1.48,-0.24 -0.52,-0.24 -0.79999,-0.64 -0.28001,-0.4 -0.40001,-0.92 -0.08,-0.56 -0.08,-1.2 z m 0,-7.6 q -0.56,0.68 -1.72,0.92 -1.12,0.24 -2.52,0.36 l -2.56,0.24 q -1.12,0.12 -2.24,0.36 -1.12,0.2 -2.04,0.72 -0.88,0.52 -1.43999,1.44 -0.56001,0.88 -0.56001,2.32 0,2.28 1.44,3.4 1.44,1.08 3.96,1.08 2.6,0 4.12,-0.92 1.52,-0.96 2.32,-2.16 0.8,-1.24 1,-2.36 0.24,-1.16 0.24,-1.56 z" />
      <path
         id="path3841"
         style="font-style:normal;font-variant:normal;font-weight:200;font-stretch:normal;font-family:'Helvetica Neue';-inkscape-font-specification:'Helvetica Neue Ultra-Light';fill:#005200;fill-opacity:1"
         d="m 249.40937,573.91661 h -4.48 v 14.36 q 0,1.24 0.28,1.96 0.28,0.72 0.84,1.12 0.6,0.36 1.4,0.44 0.84,0.08 1.92,0.04 v 1.32 q -1.16,0.08 -2.28,0 -1.08,-0.12 -1.92,-0.6 -0.84,-0.52 -1.36,-1.52 -0.48,-1 -0.4,-2.76 v -14.36 h -3.8 v -1.32 h 3.8 v -6.4 h 1.52 v 6.4 h 4.48 z" />
      <path
         id="path3843"
         style="font-style:normal;font-variant:normal;font-weight:200;font-stretch:normal;font-family:'Helvetica Neue';-inkscape-font-specification:'Helvetica Neue Ultra-Light';fill:#005200;fill-opacity:1"
         d="M 268.52,593.15661 H 267 v -4.4 h -0.08 q -0.4,1.16 -1.16,2.08 -0.72,0.88 -1.72,1.52 -0.96,0.64 -2.12,0.96 -1.16,0.32 -2.36,0.32 -1.8,0 -3.08,-0.44 -1.24,-0.44 -2.04,-1.16 -0.8,-0.72 -1.28,-1.6 -0.44,-0.92 -0.64,-1.84 -0.2,-0.92 -0.24,-1.76 -0.04,-0.88 -0.04,-1.52 v -12.72 h 1.52 v 13 q 0,0.8 0.12,1.96 0.12,1.12 0.68,2.2 0.6,1.04 1.76,1.8 1.16,0.76 3.28,0.76 1.72,0 3.08,-0.64 1.4,-0.64 2.36,-1.76 0.96,-1.16 1.44,-2.72 0.52,-1.6 0.52,-3.48 v -11.12 h 1.52 z" />
      <path
         id="path3845"
         style="font-style:normal;font-variant:normal;font-weight:200;font-stretch:normal;font-family:'Helvetica Neue';-inkscape-font-specification:'Helvetica Neue Ultra-Light';fill:#005200;fill-opacity:1"
         d="m 274.54125,577.15661 h 0.12 q 0.28,-1 1,-1.88 0.76,-0.88 1.8,-1.52 1.08,-0.64 2.36,-0.96 1.32,-0.36 2.72,-0.32 v 1.52 q -1.2,-0.16 -2.76,0.24 -1.52,0.4 -2.92,1.76 -0.56,0.6 -1,1.16 -0.4,0.56 -0.68,1.24 -0.28,0.68 -0.44,1.52 -0.16,0.84 -0.2,2 v 11.24 h -1.52 v -20.56 h 1.52 z" />
      <path
         id="path3847"
         style="font-style:normal;font-variant:normal;font-weight:200;font-stretch:normal;font-family:'Helvetica Neue';-inkscape-font-specification:'Helvetica Neue Ultra-Light';fill:#005200;fill-opacity:1"
         d="m 284.24625,583.07661 v 0.24 q 0,1.8 0.48,3.44 0.48,1.64 1.4,2.88 0.96,1.24 2.36,1.96 1.44,0.72 3.32,0.72 3.08,0 4.88,-1.6 1.8,-1.64 2.48,-4.52 h 1.52 q -0.68,3.6 -2.96,5.52 -2.24,1.92 -5.96,1.92 -2.28,0 -4,-0.8 -1.68,-0.84 -2.84,-2.24 -1.12,-1.44 -1.68,-3.36 -0.56,-1.96 -0.56,-4.2 0,-2.16 0.56,-4.12 0.6,-2 1.76,-3.48 1.16,-1.52 2.88,-2.4 1.76,-0.92 4.12,-0.92 2.16,0 3.8,0.8 1.68,0.8 2.8,2.2 1.12,1.36 1.68,3.2 0.6,1.8 0.6,3.88 0,0.2 -0.04,0.48 0,0.24 0,0.4 z m 15.08,-1.32 q -0.08,-1.68 -0.56,-3.16 -0.48,-1.52 -1.44,-2.64 -0.92,-1.16 -2.28,-1.84 -1.32,-0.68 -3.04,-0.68 -1.84,0 -3.24,0.72 -1.4,0.68 -2.36,1.84 -0.96,1.12 -1.48,2.64 -0.52,1.52 -0.64,3.12 z" />
      <path
         id="path3849"
         style="font-style:normal;font-variant:normal;font-weight:200;font-stretch:normal;font-family:'Helvetica Neue';-inkscape-font-specification:'Helvetica Neue Ultra-Light';fill:#005200;fill-opacity:1"
         d="m 315.80125,564.59661 h 2.52 l 11.16,26.6 h 0.08 l 11.04,-26.6 h 2.52 v 28.56 h -1.76 v -26.4 h -0.08 l -10.88,26.4 h -1.76 l -11,-26.4 h -0.08 v 26.4 h -1.76 z" />
      <path
         id="path3851"
         style="font-style:normal;font-variant:normal;font-weight:200;font-stretch:normal;font-family:'Helvetica Neue';-inkscape-font-specification:'Helvetica Neue Ultra-Light';fill:#005200;fill-opacity:1"
         d="m 361.505,589.07661 h -0.08 q -0.36,0.92 -1.04,1.76 -0.68,0.8 -1.68,1.44 -0.96,0.64 -2.2,1 -1.24,0.36 -2.72,0.36 -3.28,0 -5.08,-1.4 -1.8,-1.44 -1.8,-4.4 0,-1.8 0.72,-2.92 0.72,-1.16 1.8,-1.8 1.12,-0.68 2.44,-0.96 1.36,-0.28 2.6,-0.4 l 2.36,-0.2 q 1.64,-0.12 2.56,-0.36 0.96,-0.28 1.44,-0.72 0.48,-0.48 0.6,-1.2 0.12,-0.72 0.12,-1.8 0,-0.84 -0.32,-1.56 -0.32,-0.72 -1,-1.28 -0.68,-0.56 -1.76,-0.88 -1.08,-0.32 -2.64,-0.32 -2.76,0 -4.48,1.36 -1.68,1.36 -1.84,4.12 h -1.52 q 0.16,-3.4 2.16,-5.08 2.04,-1.72 5.76,-1.72 3.72,0 5.4,1.48 1.72,1.44 1.72,3.8 v 11.96 q 0,0.44 0,0.88 0.04,0.44 0.16,0.8 0.12,0.36 0.4,0.6 0.28,0.2 0.8,0.2 0.4,0 1.12,-0.12 v 1.28 q -0.6,0.16 -1.24,0.16 -0.92,0 -1.48,-0.24 -0.52,-0.24 -0.8,-0.64 -0.28,-0.4 -0.4,-0.92 -0.08,-0.56 -0.08,-1.2 z m 0,-7.6 q -0.56,0.68 -1.72,0.92 -1.12,0.24 -2.52,0.36 l -2.56,0.24 q -1.12,0.12 -2.24,0.36 -1.12,0.2 -2.04,0.72 -0.88,0.52 -1.44,1.44 -0.56,0.88 -0.56,2.32 0,2.28 1.44,3.4 1.44,1.08 3.96,1.08 2.6,0 4.12,-0.92 1.52,-0.96 2.32,-2.16 0.8,-1.24 1,-2.36 0.24,-1.16 0.24,-1.56 z" />
      <path
         id="path3853"
         style="font-style:normal;font-variant:normal;font-weight:200;font-stretch:normal;font-family:'Helvetica Neue';-inkscape-font-specification:'Helvetica Neue Ultra-Light';fill:#005200;fill-opacity:1"
         d="m 368.225,568.71661 v -4.12 h 1.52 v 4.12 z m 0,24.44 v -20.56 h 1.52 v 20.56 z" />
      <path
         id="path3855"
         style="font-style:normal;font-variant:normal;font-weight:200;font-stretch:normal;font-family:'Helvetica Neue';-inkscape-font-specification:'Helvetica Neue Ultra-Light';fill:#005200;fill-opacity:1"
         d="m 390.46375,588.75661 h -0.08 q -1.28,2.44 -3.2,3.68 -1.92,1.2 -4.68,1.2 -2.32,0 -4,-0.88 -1.68,-0.88 -2.76,-2.36 -1.08,-1.48 -1.6,-3.4 -0.52,-1.96 -0.52,-4.08 0,-2.28 0.56,-4.24 0.56,-2 1.68,-3.44 1.16,-1.44 2.88,-2.28 1.72,-0.84 4.04,-0.84 1.24,0 2.44,0.36 1.2,0.32 2.2,0.96 1.04,0.64 1.8,1.6 0.76,0.96 1.16,2.16 h 0.08 v -12.6 h 1.52 v 28.56 h -1.52 z m -7.64,3.56 q 1.96,0 3.36,-0.8 1.44,-0.8 2.36,-2.12 0.96,-1.32 1.4,-3 0.48,-1.72 0.48,-3.48 0,-1.8 -0.48,-3.48 -0.44,-1.72 -1.36,-3.04 -0.92,-1.36 -2.4,-2.16 -1.44,-0.8 -3.4,-0.8 -2.04,0 -3.48,0.8 -1.44,0.76 -2.4,2.08 -0.92,1.32 -1.36,3.04 -0.4,1.72 -0.4,3.56 0,1.8 0.44,3.52 0.48,1.68 1.4,3 0.96,1.32 2.4,2.12 1.44,0.76 3.44,0.76 z" />
    </g>
  </g>
</svg>
