<?xml version="1.0" encoding="UTF-8" standalone="no"?>
<svg
   xmlns:dc="http://purl.org/dc/elements/1.1/"
   xmlns:cc="http://creativecommons.org/ns#"
   xmlns:rdf="http://www.w3.org/1999/02/22-rdf-syntax-ns#"
   xmlns:svg="http://www.w3.org/2000/svg"
   xmlns="http://www.w3.org/2000/svg"
   height="12.071697"
   width="15.999791"
   xml:space="preserve"
   viewBox="0 0 15.999791 12.071697"
   y="0px"
   x="0px"
   id="Capa_1"
   version="1.1"><metadata
     id="metadata39"><rdf:RDF><cc:Work
         rdf:about=""><dc:format>image/svg+xml</dc:format><dc:type
           rdf:resource="http://purl.org/dc/dcmitype/StillImage" /><dc:title></dc:title></cc:Work></rdf:RDF></metadata><defs
     id="defs37" /><path
     style="opacity:0.95999995;fill:#ccccdb;fill-opacity:1;stroke:#cccccc;stroke-width:1;stroke-miterlimit:5.5;stroke-dasharray:none;stroke-opacity:1"
     id="path2"
     d="m 8.294122,11.417407 7.14303,-10.357394 c 0.07536,-0.109645 0.08322,-0.251791 0.02214,-0.368937 C 15.397502,0.573573 15.276073,0.5 15.143213,0.5 H 0.857156 C 0.724295,0.5 0.602507,0.57357 0.54072,0.691076 0.51358,0.743216 0.5,0.800364 0.5,0.857151 c 0,0.07107 0.02143,0.141789 0.06322,0.202862 l 7.14303,10.357394 c 0.06679,0.09679 0.176433,0.15429 0.293936,0.15429 0.117503,0 0.227148,-0.05786 0.293936,-0.15429 z M 1.537172,1.214303 h 12.925671 l -6.463014,9.371298 z" /><g
     transform="translate(-12.999996,-14.963661)"
     id="g4" /><g
     transform="translate(-12.999996,-14.963661)"
     id="g6" /><g
     transform="translate(-12.999996,-14.963661)"
     id="g8" /><g
     transform="translate(-12.999996,-14.963661)"
     id="g10" /><g
     transform="translate(-12.999996,-14.963661)"
     id="g12" /><g
     transform="translate(-12.999996,-14.963661)"
     id="g14" /><g
     transform="translate(-12.999996,-14.963661)"
     id="g16" /><g
     transform="translate(-12.999996,-14.963661)"
     id="g18" /><g
     transform="translate(-12.999996,-14.963661)"
     id="g20" /><g
     transform="translate(-12.999996,-14.963661)"
     id="g22" /><g
     transform="translate(-12.999996,-14.963661)"
     id="g24" /><g
     transform="translate(-12.999996,-14.963661)"
     id="g26" /><g
     transform="translate(-12.999996,-14.963661)"
     id="g28" /><g
     transform="translate(-12.999996,-14.963661)"
     id="g30" /><g
     transform="translate(-12.999996,-14.963661)"
     id="g32" /></svg>