<?xml version="1.0" encoding="UTF-8" standalone="no"?>
<svg
   xmlns:dc="http://purl.org/dc/elements/1.1/"
   xmlns:cc="http://creativecommons.org/ns#"
   xmlns:rdf="http://www.w3.org/1999/02/22-rdf-syntax-ns#"
   xmlns:svg="http://www.w3.org/2000/svg"
   xmlns="http://www.w3.org/2000/svg"
   xmlns:sodipodi="http://sodipodi.sourceforge.net/DTD/sodipodi-0.dtd"
   xmlns:inkscape="http://www.inkscape.org/namespaces/inkscape"
   xml:space="preserve"
   viewBox="0 0 100 98.275864"
   y="0px"
   x="0px"
   id="Capa_1"
   version="1.1"
   sodipodi:docname="calendar-color.svg"
   width="100"
   height="98.275864"
   inkscape:version="0.92.2 5c3e80d, 2017-08-06"><sodipodi:namedview
     pagecolor="#ffffff"
     bordercolor="#666666"
     borderopacity="1"
     objecttolerance="10"
     gridtolerance="10"
     guidetolerance="10"
     inkscape:pageopacity="0"
     inkscape:pageshadow="2"
     inkscape:window-width="738"
     inkscape:window-height="480"
     id="namedview25"
     showgrid="false"
     inkscape:pagecheckerboard="true"
     fit-margin-top="0"
     fit-margin-left="0"
     fit-margin-right="0"
     fit-margin-bottom="0"
     inkscape:zoom="4.0689655"
     inkscape:cx="50"
     inkscape:cy="49.137929"
     inkscape:window-x="0"
     inkscape:window-y="0"
     inkscape:window-maximized="0"
     inkscape:current-layer="Capa_1" /><metadata
     id="metadata47"><rdf:RDF><cc:Work
         rdf:about=""><dc:format>image/svg+xml</dc:format><dc:type
           rdf:resource="http://purl.org/dc/dcmitype/StillImage" /><dc:title></dc:title></cc:Work></rdf:RDF></metadata><defs
     id="defs45" /><g
     style="fill:#008080;fill-opacity:1"
     id="g10"
     transform="matrix(1.7241379,0,0,1.7241379,0,-0.86206895)"><path
       style="fill:#008080;fill-opacity:1"
       id="path2"
       d="M 42.899,4.5 C 42.434,2.221 40.415,0.5 38,0.5 c -0.552,0 -1,0.447 -1,1 0,0.553 0.448,1 1,1 1.654,0 3,1.346 3,3 0,1.654 -1.346,3 -3,3 -0.552,0 -1,0.447 -1,1 0,0.553 0.448,1 1,1 2.414,0 4.434,-1.721 4.899,-4 H 56 v 7 H 44 42 30 28 16 14 2 v -7 h 14 3 c 0.552,0 1,-0.447 1,-1 0,-0.553 -0.448,-1 -1,-1 h -1.816 c 0.414,-1.162 1.514,-2 2.816,-2 1.654,0 3,1.346 3,3 0,1.654 -1.346,3 -3,3 -0.552,0 -1,0.447 -1,1 0,0.553 0.448,1 1,1 2.757,0 5,-2.243 5,-5 0,-2.757 -2.243,-5 -5,-5 -2.414,0 -4.434,1.721 -4.899,4 H 0 v 9 3 11 2 12 2 14 h 14 2 12 2 12 2 14 v -14 -2 -12 -2 -11 -3 -9 z M 30,15.5 h 12 v 12 H 30 Z m 12,26 H 30 v -12 h 12 z m -26,-12 h 12 v 12 H 16 Z m 0,-14 h 12 v 12 H 16 Z m -14,1 v -1 h 12 v 12 H 2 Z m 0,13 h 12 v 12 H 2 Z m 0,26 v -12 h 12 v 12 z m 14,0 v -12 h 12 v 12 z m 14,0 v -12 h 12 v 12 z m 26,0 H 44 v -12 h 12 z m 0,-14 H 44 v -12 h 12 z m -12,-14 v -12 h 12 v 1 11 z"
       inkscape:connector-curvature="0" /><path
       style="fill:#008080;fill-opacity:1"
       id="path4"
       d="m 26,2.5 c 1.654,0 3,1.346 3,3 0,1.654 -1.346,3 -3,3 -0.552,0 -1,0.447 -1,1 0,0.553 0.448,1 1,1 2.757,0 5,-2.243 5,-5 0,-2.757 -2.243,-5 -5,-5 -0.552,0 -1,0.447 -1,1 0,0.553 0.448,1 1,1 z"
       inkscape:connector-curvature="0" /><path
       style="fill:#008080;fill-opacity:1"
       id="path6"
       d="m 32,2.5 c 1.654,0 3,1.346 3,3 0,1.654 -1.346,3 -3,3 -0.552,0 -1,0.447 -1,1 0,0.553 0.448,1 1,1 2.757,0 5,-2.243 5,-5 0,-2.757 -2.243,-5 -5,-5 -0.552,0 -1,0.447 -1,1 0,0.553 0.448,1 1,1 z"
       inkscape:connector-curvature="0" /><path
       style="fill:#008080;fill-opacity:1"
       id="path8"
       d="m 31.293,40.207 c 0.195,0.195 0.451,0.293 0.707,0.293 0.256,0 0.512,-0.098 0.707,-0.293 L 36,36.914 l 3.293,3.293 c 0.195,0.195 0.451,0.293 0.707,0.293 0.256,0 0.512,-0.098 0.707,-0.293 0.391,-0.391 0.391,-1.023 0,-1.414 L 37.414,35.5 40.707,32.207 c 0.391,-0.391 0.391,-1.023 0,-1.414 -0.391,-0.391 -1.023,-0.391 -1.414,0 L 36,34.086 32.707,30.793 c -0.391,-0.391 -1.023,-0.391 -1.414,0 -0.391,0.391 -0.391,1.023 0,1.414 l 3.293,3.293 -3.293,3.293 c -0.391,0.391 -0.391,1.023 0,1.414 z"
       inkscape:connector-curvature="0" /></g><g
     id="g12"
     transform="translate(21,20.137931)" /><g
     id="g14"
     transform="translate(21,20.137931)" /><g
     id="g16"
     transform="translate(21,20.137931)" /><g
     id="g18"
     transform="translate(21,20.137931)" /><g
     id="g20"
     transform="translate(21,20.137931)" /><g
     id="g22"
     transform="translate(21,20.137931)" /><g
     id="g24"
     transform="translate(21,20.137931)" /><g
     id="g26"
     transform="translate(21,20.137931)" /><g
     id="g28"
     transform="translate(21,20.137931)" /><g
     id="g30"
     transform="translate(21,20.137931)" /><g
     id="g32"
     transform="translate(21,20.137931)" /><g
     id="g34"
     transform="translate(21,20.137931)" /><g
     id="g36"
     transform="translate(21,20.137931)" /><g
     id="g38"
     transform="translate(21,20.137931)" /><g
     id="g40"
     transform="translate(21,20.137931)" /></svg>