<?xml version="1.0" encoding="UTF-8" standalone="no"?>
<svg
   xmlns:dc="http://purl.org/dc/elements/1.1/"
   xmlns:cc="http://creativecommons.org/ns#"
   xmlns:rdf="http://www.w3.org/1999/02/22-rdf-syntax-ns#"
   xmlns:svg="http://www.w3.org/2000/svg"
   xmlns="http://www.w3.org/2000/svg"
   xmlns:sodipodi="http://sodipodi.sourceforge.net/DTD/sodipodi-0.dtd"
   xmlns:inkscape="http://www.inkscape.org/namespaces/inkscape"
   xml:space="preserve"
   viewBox="0 0 69.999998 69.3"
   y="0px"
   x="0px"
   id="Layer_1"
   version="1.1"
   sodipodi:docname="relax-color.svg"
   width="100"
   height="99"
   inkscape:version="0.92.2 5c3e80d, 2017-08-06"><sodipodi:namedview
     pagecolor="#ffffff"
     bordercolor="#666666"
     borderopacity="1"
     objecttolerance="10"
     gridtolerance="10"
     guidetolerance="10"
     inkscape:pageopacity="0"
     inkscape:pageshadow="2"
     inkscape:window-width="745"
     inkscape:window-height="480"
     id="namedview35"
     showgrid="false"
     fit-margin-top="0"
     fit-margin-left="0"
     fit-margin-right="0"
     fit-margin-bottom="0"
     scale-x="0.7"
     inkscape:pagecheckerboard="true"
     inkscape:zoom="0.4609375"
     inkscape:cx="28.571931"
     inkscape:cy="70.178731"
     inkscape:window-x="0"
     inkscape:window-y="0"
     inkscape:window-maximized="0"
     inkscape:current-layer="Layer_1" /><metadata
     id="metadata67"><rdf:RDF><cc:Work
         rdf:about=""><dc:format>image/svg+xml</dc:format><dc:type
           rdf:resource="http://purl.org/dc/dcmitype/StillImage" /><dc:title></dc:title></cc:Work></rdf:RDF></metadata><defs
     id="defs65" /><g
     style="fill:#008080;fill-opacity:1"
     id="g30"
     transform="matrix(0.13671901,0,0,0.14026076,0.13671901,-1.1165107)"><g
       style="fill:#008080;fill-opacity:1"
       id="g28"><g
         style="fill:#008080;fill-opacity:1"
         id="g26"><path
           style="fill:#008080;fill-opacity:1"
           id="path2"
           d="m 434.2,416.707 h -256 c -5.12,0 -8.533,3.413 -8.533,8.533 0,5.12 3.413,8.533 8.533,8.533 h 256 c 5.12,0 8.533,-3.413 8.533,-8.533 0,-5.12 -3.413,-8.533 -8.533,-8.533 z"
           inkscape:connector-curvature="0" /><path
           style="fill:#008080;fill-opacity:1"
           id="path4"
           d="M 186.733,450.84 H 75.8 c -14.507,0 -25.6,-11.093 -25.6,-25.6 0,-14.507 11.093,-25.6 25.6,-25.6 h 196.267 c 5.12,0 8.533,-3.413 8.533,-8.533 0,-5.12 -3.413,-8.533 -8.533,-8.533 H 75.8 c -23.893,0 -42.667,18.773 -42.667,42.667 0,23.894 18.773,42.667 42.667,42.667 h 110.933 c 5.12,0 8.533,-3.413 8.533,-8.533 0.001,-5.122 -3.413,-8.535 -8.533,-8.535 z"
           inkscape:connector-curvature="0" /><path
           style="fill:#008080;fill-opacity:1"
           id="path6"
           d="M 434.2,382.573 H 314.733 c -5.12,0 -8.533,3.413 -8.533,8.533 0,5.12 3.413,8.533 8.533,8.533 H 434.2 c 5.12,0 8.533,-3.413 8.533,-8.533 0,-5.12 -3.413,-8.533 -8.533,-8.533 z"
           inkscape:connector-curvature="0" /><path
           style="fill:#008080;fill-opacity:1"
           id="path8"
           d="M 314.733,450.84 H 229.4 c -5.12,0 -8.533,3.413 -8.533,8.533 0,5.12 3.413,8.533 8.533,8.533 h 85.333 c 5.12,0 8.533,-3.413 8.533,-8.533 10e-4,-5.12 -3.413,-8.533 -8.533,-8.533 z"
           inkscape:connector-curvature="0" /><path
           style="fill:#008080;fill-opacity:1"
           id="path10"
           d="m 434.2,450.84 h -76.8 c -5.12,0 -8.533,3.413 -8.533,8.533 0,5.12 3.413,8.533 8.533,8.533 h 76.8 c 5.12,0 8.533,-3.413 8.533,-8.533 0,-5.12 -3.413,-8.533 -8.533,-8.533 z"
           inkscape:connector-curvature="0" /><path
           style="fill:#008080;fill-opacity:1"
           id="path12"
           d="m 84.333,416.707 c -5.12,0 -8.533,3.413 -8.533,8.533 0,5.12 3.413,8.533 8.533,8.533 h 51.2 c 5.12,0 8.533,-3.413 8.533,-8.533 0,-5.12 -3.413,-8.533 -8.533,-8.533 z"
           inkscape:connector-curvature="0" /><path
           style="fill:#008080;fill-opacity:1"
           id="path14"
           d="m 254.147,229.827 c -19.627,0 -40.96,-18.773 -55.467,-46.933 -1.707,-4.267 -6.827,-5.12 -11.093,-3.413 -4.266,1.707 -5.12,6.827 -3.413,11.093 13.653,26.453 39.253,55.467 70.827,55.467 5.12,0 7.68,-2.56 7.68,-7.68 0,-5.12 -3.414,-8.534 -8.534,-8.534 z"
           inkscape:connector-curvature="0" /><path
           style="fill:#008080;fill-opacity:1"
           id="path16"
           d="m 502.467,263.107 h -51.2 -34.133 -109.646 c 10.761,-7.265 20.591,-16.51 29.213,-27.063 4.055,1.054 8.11,1.463 12.165,1.463 28.16,0 51.2,-23.04 52.053,-52.907 0,-18.6 -10.559,-35.791 -26.561,-44.544 0.065,-1.657 0.108,-3.309 0.108,-4.95 0,-5.12 -3.413,-8.533 -8.533,-8.533 H 144.067 c -5.12,0 -8.533,3.413 -8.533,8.533 0,47.052 27.133,101.1 66.979,128 H 127 75.8 7.533 c -5.12,0 -8.533,3.413 -8.533,8.533 v 85.333 c 0,5.12 3.413,8.533 8.533,8.533 H 27.34 C 10.015,379.544 -1,401.011 -1,425.24 c 0,42.667 34.133,76.8 76.8,76.8 h 418.133 c 3.413,0 5.973,-1.707 7.68,-4.267 1.707,-2.56 1.707,-5.973 0,-8.533 -11.093,-19.627 -17.067,-41.813 -17.067,-64 0,-20.595 5.155,-41.186 14.766,-59.733 h 3.154 c 5.12,0 8.533,-3.413 8.533,-8.533 V 271.64 c 10e-4,-5.12 -3.412,-8.533 -8.532,-8.533 z m -8.534,85.333 H 459.8 v -68.267 h 34.133 z m -51.2,-68.267 V 348.44 H 425.666 V 280.173 Z M 383,186.307 c 0,18.773 -16.213,34.987 -34.987,34.133 5.616,-8.424 10.278,-17.606 14.097,-27.095 4.423,-10.647 7.762,-21.64 9.845,-32.588 6.798,6.822 11.045,16.185 11.045,25.55 z M 152.6,143.64 h 204.8 c -0.464,6.03 -1.413,12.16 -2.802,18.299 -0.095,0.407 -0.189,0.814 -0.288,1.221 -0.149,0.632 -0.299,1.264 -0.457,1.895 -3.715,14.492 -9.803,28.974 -17.683,42.271 -0.07,0.117 -0.14,0.235 -0.21,0.351 -0.338,0.567 -0.692,1.122 -1.037,1.685 -19.023,30.556 -48.079,53.745 -79.923,53.745 -52.907,0 -98.133,-64 -102.4,-119.467 z m 256,136.533 V 348.44 H 135.533 v -68.267 z m -290.133,0 V 348.44 H 84.333 v -68.267 z m -102.4,0 h 51.2 v 68.267 h -51.2 z m 464.213,204.8 H 75.8 c -33.28,0 -59.733,-26.453 -59.733,-59.733 0,-33.28 26.453,-59.733 59.733,-59.733 h 51.2 290.133 34.133 29.013 c -8.533,18.773 -12.8,39.253 -12.8,59.733 0.001,20.48 4.268,40.96 12.801,59.733 z"
           inkscape:connector-curvature="0" /><path
           style="fill:#008080;fill-opacity:1"
           id="path18"
           d="m 186.733,322.84 h 162.133 c 5.12,0 8.533,-3.413 8.533,-8.533 0,-5.12 -3.413,-8.533 -8.533,-8.533 H 186.733 c -5.12,0 -8.533,3.413 -8.533,8.533 0,5.12 3.413,8.533 8.533,8.533 z"
           inkscape:connector-curvature="0" /><path
           style="fill:#008080;fill-opacity:1"
           id="path20"
           d="m 237.933,65.133 c 0,8.533 3.413,16.213 11.093,24.747 1.707,1.707 3.413,2.56 5.973,2.56 1.707,0 4.267,-0.853 5.12,-2.56 4.267,-3.413 4.267,-8.533 0.853,-11.947 -2.56,-2.56 -5.973,-7.68 -5.973,-11.947 0,-3.413 2.56,-6.827 5.973,-10.24 7.68,-7.68 11.093,-15.36 11.093,-23.893 0,-7.68 -4.267,-15.36 -11.093,-21.333 -3.413,-3.413 -8.533,-3.413 -11.947,0 -3.414,3.413 -3.413,8.533 0,11.947 4.267,3.413 5.973,6.827 5.973,10.24 0,4.267 -3.413,8.533 -5.973,11.093 -6.825,5.973 -11.092,13.653 -11.092,21.333 z"
           inkscape:connector-curvature="0" /><path
           style="fill:#008080;fill-opacity:1"
           id="path22"
           d="m 297.667,65.133 c 0,8.533 3.413,16.213 11.093,24.747 1.707,1.707 3.413,2.56 5.973,2.56 1.707,0 4.267,-0.853 5.12,-2.56 4.267,-3.413 4.267,-8.533 0.853,-11.947 -2.56,-2.56 -5.973,-7.68 -5.973,-11.947 0,-3.413 2.56,-6.827 5.973,-10.24 7.68,-7.68 11.093,-15.36 11.093,-23.893 0,-7.68 -4.267,-15.36 -11.093,-21.333 -3.413,-3.413 -8.533,-3.413 -11.947,0 -3.414,3.413 -3.413,8.533 0,11.947 4.267,3.413 5.973,6.827 5.973,10.24 0,4.267 -3.413,8.533 -5.973,11.093 -6.826,5.973 -11.092,13.653 -11.092,21.333 z"
           inkscape:connector-curvature="0" /><path
           style="fill:#008080;fill-opacity:1"
           id="path24"
           d="m 178.2,65.133 c 0,8.533 3.413,16.213 11.093,24.747 1.707,1.707 3.413,2.56 5.973,2.56 1.707,0 4.267,-0.853 5.12,-2.56 4.267,-3.413 4.267,-8.533 0.853,-11.947 -2.56,-2.56 -5.973,-7.68 -5.973,-11.947 0,-3.413 2.56,-6.827 5.973,-10.24 7.68,-7.68 11.093,-15.36 11.093,-23.893 0,-7.68 -4.267,-15.36 -11.093,-21.333 -3.413,-3.413 -8.533,-3.413 -11.947,0 -3.414,3.413 -3.413,8.533 0,11.947 4.267,3.413 5.973,6.827 5.973,10.24 0,4.267 -3.413,8.533 -5.973,11.093 -6.825,5.973 -11.092,13.653 -11.092,21.333 z"
           inkscape:connector-curvature="0" /></g></g></g><g
     id="g32"
     transform="translate(-220.9995,-221.35013)" /><g
     id="g34"
     transform="translate(-220.9995,-221.35013)" /><g
     id="g36"
     transform="translate(-220.9995,-221.35013)" /><g
     id="g38"
     transform="translate(-220.9995,-221.35013)" /><g
     id="g40"
     transform="translate(-220.9995,-221.35013)" /><g
     id="g42"
     transform="translate(-220.9995,-221.35013)" /><g
     id="g44"
     transform="translate(-220.9995,-221.35013)" /><g
     id="g46"
     transform="translate(-220.9995,-221.35013)" /><g
     id="g48"
     transform="translate(-220.9995,-221.35013)" /><g
     id="g50"
     transform="translate(-220.9995,-221.35013)" /><g
     id="g52"
     transform="translate(-220.9995,-221.35013)" /><g
     id="g54"
     transform="translate(-220.9995,-221.35013)" /><g
     id="g56"
     transform="translate(-220.9995,-221.35013)" /><g
     id="g58"
     transform="translate(-220.9995,-221.35013)" /><g
     id="g60"
     transform="translate(-220.9995,-221.35013)" /></svg>