<?xml version="1.0" encoding="UTF-8" standalone="no"?>
<svg
   xmlns:dc="http://purl.org/dc/elements/1.1/"
   xmlns:cc="http://creativecommons.org/ns#"
   xmlns:rdf="http://www.w3.org/1999/02/22-rdf-syntax-ns#"
   xmlns:svg="http://www.w3.org/2000/svg"
   xmlns="http://www.w3.org/2000/svg"
   xmlns:sodipodi="http://sodipodi.sourceforge.net/DTD/sodipodi-0.dtd"
   xmlns:inkscape="http://www.inkscape.org/namespaces/inkscape"
   xml:space="preserve"
   viewBox="0 0 25.000001 19.16117"
   height="19.161169"
   width="25"
   y="0px"
   x="0px"
   id="Capa_1"
   version="1.1"
   sodipodi:docname="bold-check-color.svg"
   inkscape:version="0.92.2 5c3e80d, 2017-08-06"><sodipodi:namedview
     pagecolor="#ffffff"
     bordercolor="#666666"
     borderopacity="1"
     objecttolerance="10"
     gridtolerance="10"
     guidetolerance="10"
     inkscape:pageopacity="0"
     inkscape:pageshadow="2"
     inkscape:window-width="738"
     inkscape:window-height="480"
     id="namedview22"
     showgrid="false"
     inkscape:pagecheckerboard="true"
     fit-margin-top="0"
     fit-margin-left="0"
     fit-margin-right="0"
     fit-margin-bottom="0"
     inkscape:zoom="1.0665871"
     inkscape:cx="-23.127661"
     inkscape:cy="9.5810876"
     inkscape:window-x="0"
     inkscape:window-y="0"
     inkscape:window-maximized="0"
     inkscape:current-layer="Capa_1" /><metadata
     id="metadata41"><rdf:RDF><cc:Work
         rdf:about=""><dc:format>image/svg+xml</dc:format><dc:type
           rdf:resource="http://purl.org/dc/dcmitype/StillImage" /><dc:title /></cc:Work></rdf:RDF></metadata><defs
     id="defs39" /><g
     style="fill:#f6cc3f;fill-opacity:0.94117647"
     id="g4"
     transform="matrix(0.05649296,0,0,0.05649296,0,-2.9194432)"><path
       style="fill:#f6cc3f;fill-opacity:0.94117647"
       id="path2"
       d="M 434.539,98.499 395.711,59.671 c -5.324,-5.328 -11.799,-7.993 -19.41,-7.993 -7.618,0 -14.093,2.665 -19.417,7.993 L 169.59,247.248 85.651,163.023 c -5.33,-5.33 -11.801,-7.992 -19.412,-7.992 -7.616,0 -14.087,2.662 -19.417,7.992 L 7.994,201.852 C 2.664,207.181 0,213.654 0,221.269 c 0,7.609 2.664,14.088 7.994,19.416 l 103.351,103.349 38.831,38.828 c 5.327,5.332 11.8,7.994 19.414,7.994 7.611,0 14.084,-2.669 19.414,-7.994 l 38.83,-38.828 206.705,-206.704 c 5.325,-5.33 7.994,-11.802 7.994,-19.417 0.004,-7.611 -2.669,-14.084 -7.994,-19.414 z"
       inkscape:connector-curvature="0" /></g><g
     id="g6"
     transform="translate(-208.7665,-211.68641)"
     style="fill:#f6cc3f;fill-opacity:0.94117647" /><g
     id="g8"
     transform="translate(-208.7665,-211.68641)"
     style="fill:#f6cc3f;fill-opacity:0.94117647" /><g
     id="g10"
     transform="translate(-208.7665,-211.68641)"
     style="fill:#f6cc3f;fill-opacity:0.94117647" /><g
     id="g12"
     transform="translate(-208.7665,-211.68641)"
     style="fill:#f6cc3f;fill-opacity:0.94117647" /><g
     id="g14"
     transform="translate(-208.7665,-211.68641)"
     style="fill:#f6cc3f;fill-opacity:0.94117647" /><g
     id="g16"
     transform="translate(-208.7665,-211.68641)"
     style="fill:#f6cc3f;fill-opacity:0.94117647" /><g
     id="g18"
     transform="translate(-208.7665,-211.68641)"
     style="fill:#f6cc3f;fill-opacity:0.94117647" /><g
     id="g20"
     transform="translate(-208.7665,-211.68641)"
     style="fill:#f6cc3f;fill-opacity:0.94117647" /><g
     id="g22"
     transform="translate(-208.7665,-211.68641)"
     style="fill:#f6cc3f;fill-opacity:0.94117647" /><g
     id="g24"
     transform="translate(-208.7665,-211.68641)"
     style="fill:#f6cc3f;fill-opacity:0.94117647" /><g
     id="g26"
     transform="translate(-208.7665,-211.68641)"
     style="fill:#f6cc3f;fill-opacity:0.94117647" /><g
     id="g28"
     transform="translate(-208.7665,-211.68641)"
     style="fill:#f6cc3f;fill-opacity:0.94117647" /><g
     id="g30"
     transform="translate(-208.7665,-211.68641)"
     style="fill:#f6cc3f;fill-opacity:0.94117647" /><g
     id="g32"
     transform="translate(-208.7665,-211.68641)"
     style="fill:#f6cc3f;fill-opacity:0.94117647" /><g
     id="g34"
     transform="translate(-208.7665,-211.68641)"
     style="fill:#f6cc3f;fill-opacity:0.94117647" /></svg>